# xmcd
#
# Track frame offsets:
#	150
#	17480
#	33716
#	49666
#	66918
#	86378
#	104125
#	124758
#	142790
#	157544
#
# Disc length: 2262 seconds
#
# Revision: 1
# Processed by: cddbd v1.4PL0 Copyright (c) Steve Scherf et al.
# Submitted via: audiograbber 1.82.02
#
DISCID=7808d40a
DTITLE=Patricia Nohva - Salut country
DYEAR=2001
DGENRE=
TTITLE0=Ca va bien
TTITLE1=Pas besoin
TTITLE2=Ou sont les cowboys
TTITLE3=Dis-moi lune
TTITLE4=Tu m'as aime
TTITLE5=Une femme en blue-jeans
TTITLE6=And I love you so
TTITLE7=On le voit arriver
TTITLE8=Keeps going on
TTITLE9=A girl's gotta do ...
EXTD=
EXTT0=
EXTT1=
EXTT2=
EXTT3=
EXTT4=
EXTT5=
EXTT6=
EXTT7=
EXTT8=
EXTT9=
PLAYORDER=
